# xmcd
#
# Track frame offsets:
#	150
#	15751
#	31527
#	47210
#	60630
#	78881
#	95282
#	113149
#	127806
#	148498
#	162167
#	176495
#	193039
#	208474
#	226834
#
# Disc length: 3240 seconds
#
# Revision: 0
# Processed by: cddbd v1.5.2PL0 Copyright (c) Steve Scherf et al.
# Submitted via: audiograbber 1.83.01
#
DISCID=bc0ca60f
DTITLE=Linda Feller - Pustekuchen
DYEAR=1900
DGENRE=Country
TTITLE0=Pustekuchen
TTITLE1=Halt dich an mir fest
TTITLE2=Ein Haus viel schöner als Zuhaus
TTITLE3=Alles so komplitiert
TTITLE4=Du bist alles (und viel mer)
TTITLE5=Bitte nicht schon wieder
TTITLE6=Wenn du sagst good bye
TTITLE7=Ich liebe dich-ich hasse dich
TTITLE8=Wie oft kann man Liebe verzeihn
TTITLE9=Wir sind alle keine Engel
TTITLE10=Der Mann von deiner Frau
TTITLE11=Ich bin ich (mit dir)
TTITLE12=Am ende der Ewigkeit
TTITLE13=Eiszeit
TTITLE14=Ich will nen Cowboy als Mann
EXTD=
EXTT0=
EXTT1=
EXTT2=
EXTT3=
EXTT4=
EXTT5=
EXTT6=
EXTT7=
EXTT8=
EXTT9=
EXTT10=
EXTT11=
EXTT12=
EXTT13=
EXTT14=
PLAYORDER=
